<mxfile host="app.diagrams.net" agent="Mozilla/5.0 (Macintosh; Intel Mac OS X 10.15; rv:131.0) Gecko/20100101 Firefox/131.0" modified="2024-10-04T16:15:22.286Z" version="24.3.1" etag="skaa6Xv2chbcxYnEQooi" type="device">
  <diagram name="Page-1" id="ad52d381-51e7-2e0d-a935-2d0ddd2fd229">
    <mxGraphModel dx="3974" dy="1984" grid="1" gridSize="10" guides="1" tooltips="1" connect="1" arrows="1" fold="1" page="1" pageScale="1" pageWidth="1100" pageHeight="850" background="none" math="0" shadow="0">
      <root>
        <mxCell id="0" />
        <mxCell id="1" parent="0" />
        <mxCell id="rk89OR3VtX5FbfcCzR7j-368" value="" style="rounded=1;absoluteArcSize=1;html=1;arcSize=10;dashed=1;strokeColor=default;align=center;verticalAlign=middle;fontFamily=Helvetica;fontSize=12;fontColor=default;fillColor=default;movable=1;resizable=1;rotatable=1;deletable=1;editable=1;locked=0;connectable=1;container=0;" vertex="1" parent="1">
          <mxGeometry x="-340" y="-250" width="720" height="790" as="geometry" />
        </mxCell>
        <mxCell id="rk89OR3VtX5FbfcCzR7j-317" value="" style="rounded=1;absoluteArcSize=1;html=1;arcSize=10;dashed=1;strokeColor=default;align=center;verticalAlign=middle;fontFamily=Helvetica;fontSize=12;fontColor=default;fillColor=default;movable=0;resizable=0;rotatable=0;deletable=0;editable=0;locked=1;connectable=0;container=0;" vertex="1" parent="1">
          <mxGeometry x="630" y="370" width="570" height="450" as="geometry" />
        </mxCell>
        <mxCell id="rk89OR3VtX5FbfcCzR7j-252" value="" style="endArrow=none;html=1;rounded=0;exitX=0.5;exitY=0;exitDx=0;exitDy=0;entryX=0.5;entryY=0;entryDx=0;entryDy=0;" edge="1" source="rk89OR3VtX5FbfcCzR7j-251" parent="1" target="rk89OR3VtX5FbfcCzR7j-122">
          <mxGeometry relative="1" as="geometry">
            <mxPoint x="-126" y="378" as="sourcePoint" />
            <mxPoint x="-66" y="348" as="targetPoint" />
          </mxGeometry>
        </mxCell>
        <mxCell id="rk89OR3VtX5FbfcCzR7j-293" value="" style="rounded=1;absoluteArcSize=1;html=1;arcSize=10;dashed=1;strokeColor=default;align=center;verticalAlign=middle;fontFamily=Helvetica;fontSize=12;fontColor=default;fillColor=default;movable=0;resizable=0;rotatable=0;deletable=0;editable=0;locked=1;connectable=0;container=0;" vertex="1" parent="1">
          <mxGeometry x="-1140" y="-620" width="770" height="400" as="geometry" />
        </mxCell>
        <mxCell id="rk89OR3VtX5FbfcCzR7j-131" value="Buys" style="shape=rhombus;perimeter=rhombusPerimeter;whiteSpace=wrap;html=1;align=center;direction=east;" vertex="1" parent="1">
          <mxGeometry x="435" y="90" width="120" height="60" as="geometry" />
        </mxCell>
        <mxCell id="rk89OR3VtX5FbfcCzR7j-180" value="" style="endArrow=none;html=1;rounded=0;exitX=0.5;exitY=1;exitDx=0;exitDy=0;entryX=0.5;entryY=0;entryDx=0;entryDy=0;" edge="1" source="rk89OR3VtX5FbfcCzR7j-181" parent="1" target="rk89OR3VtX5FbfcCzR7j-87">
          <mxGeometry relative="1" as="geometry">
            <mxPoint x="-190" y="-215" as="sourcePoint" />
            <mxPoint y="-55" as="targetPoint" />
          </mxGeometry>
        </mxCell>
        <mxCell id="rk89OR3VtX5FbfcCzR7j-156" value="" style="endArrow=none;html=1;rounded=0;exitX=0.5;exitY=1;exitDx=0;exitDy=0;entryX=0.5;entryY=0;entryDx=0;entryDy=0;" edge="1" source="rk89OR3VtX5FbfcCzR7j-113" parent="1" target="rk89OR3VtX5FbfcCzR7j-87">
          <mxGeometry relative="1" as="geometry">
            <mxPoint x="-100" y="-185" as="sourcePoint" />
            <mxPoint x="-30" y="-145" as="targetPoint" />
          </mxGeometry>
        </mxCell>
        <mxCell id="rk89OR3VtX5FbfcCzR7j-1" value="user/staff" style="whiteSpace=wrap;html=1;align=center;" vertex="1" parent="1">
          <mxGeometry x="830" y="65" width="100" height="40" as="geometry" />
        </mxCell>
        <mxCell id="rk89OR3VtX5FbfcCzR7j-5" value="Info" style="shape=ext;margin=3;double=1;whiteSpace=wrap;html=1;align=center;direction=west;" vertex="1" parent="1">
          <mxGeometry x="1330" y="62.5" width="100" height="40" as="geometry" />
        </mxCell>
        <mxCell id="rk89OR3VtX5FbfcCzR7j-10" value="" style="endArrow=none;html=1;rounded=0;exitX=1;exitY=0.5;exitDx=0;exitDy=0;entryX=0;entryY=0.5;entryDx=0;entryDy=0;" edge="1" parent="1" source="rk89OR3VtX5FbfcCzR7j-1" target="rk89OR3VtX5FbfcCzR7j-59">
          <mxGeometry relative="1" as="geometry">
            <mxPoint x="1070" y="440" as="sourcePoint" />
            <mxPoint x="800" y="330" as="targetPoint" />
          </mxGeometry>
        </mxCell>
        <mxCell id="rk89OR3VtX5FbfcCzR7j-11" value="1" style="resizable=0;html=1;whiteSpace=wrap;align=right;verticalAlign=bottom;" connectable="0" vertex="1" parent="rk89OR3VtX5FbfcCzR7j-10">
          <mxGeometry x="1" relative="1" as="geometry">
            <mxPoint x="2" y="1" as="offset" />
          </mxGeometry>
        </mxCell>
        <mxCell id="rk89OR3VtX5FbfcCzR7j-19" value="" style="endArrow=none;html=1;rounded=0;exitX=0.5;exitY=1;exitDx=0;exitDy=0;entryX=0.5;entryY=0;entryDx=0;entryDy=0;" edge="1" parent="1" source="rk89OR3VtX5FbfcCzR7j-15" target="rk89OR3VtX5FbfcCzR7j-1">
          <mxGeometry relative="1" as="geometry">
            <mxPoint x="1000" y="65" as="sourcePoint" />
            <mxPoint x="900" y="135" as="targetPoint" />
          </mxGeometry>
        </mxCell>
        <mxCell id="rk89OR3VtX5FbfcCzR7j-20" value="" style="endArrow=none;html=1;rounded=0;exitX=0.5;exitY=1;exitDx=0;exitDy=0;entryX=0.5;entryY=0;entryDx=0;entryDy=0;" edge="1" parent="1" source="rk89OR3VtX5FbfcCzR7j-16" target="rk89OR3VtX5FbfcCzR7j-1">
          <mxGeometry relative="1" as="geometry">
            <mxPoint x="950" y="15" as="sourcePoint" />
            <mxPoint x="900" y="135" as="targetPoint" />
          </mxGeometry>
        </mxCell>
        <mxCell id="rk89OR3VtX5FbfcCzR7j-21" value="" style="endArrow=none;html=1;rounded=0;exitX=0.5;exitY=1;exitDx=0;exitDy=0;exitPerimeter=0;entryX=0.5;entryY=0;entryDx=0;entryDy=0;" edge="1" parent="1" source="rk89OR3VtX5FbfcCzR7j-22" target="rk89OR3VtX5FbfcCzR7j-1">
          <mxGeometry relative="1" as="geometry">
            <mxPoint x="780" y="65" as="sourcePoint" />
            <mxPoint x="770" y="105" as="targetPoint" />
          </mxGeometry>
        </mxCell>
        <mxCell id="rk89OR3VtX5FbfcCzR7j-47" value="" style="endArrow=none;html=1;rounded=0;exitX=0.5;exitY=0;exitDx=0;exitDy=0;entryX=0.5;entryY=1;entryDx=0;entryDy=0;" edge="1" source="rk89OR3VtX5FbfcCzR7j-46" parent="1" target="rk89OR3VtX5FbfcCzR7j-5">
          <mxGeometry relative="1" as="geometry">
            <mxPoint x="1430" y="270" as="sourcePoint" />
            <mxPoint x="1240" y="210" as="targetPoint" />
          </mxGeometry>
        </mxCell>
        <mxCell id="rk89OR3VtX5FbfcCzR7j-49" value="" style="endArrow=none;html=1;rounded=0;exitX=0.5;exitY=0;exitDx=0;exitDy=0;entryX=0.5;entryY=1;entryDx=0;entryDy=0;" edge="1" source="rk89OR3VtX5FbfcCzR7j-48" parent="1" target="rk89OR3VtX5FbfcCzR7j-5">
          <mxGeometry relative="1" as="geometry">
            <mxPoint x="1440" y="280" as="sourcePoint" />
            <mxPoint x="1300" y="170" as="targetPoint" />
          </mxGeometry>
        </mxCell>
        <mxCell id="rk89OR3VtX5FbfcCzR7j-51" value="" style="endArrow=none;html=1;rounded=0;exitX=0.5;exitY=0;exitDx=0;exitDy=0;entryX=0.5;entryY=1;entryDx=0;entryDy=0;" edge="1" source="rk89OR3VtX5FbfcCzR7j-52" parent="1" target="rk89OR3VtX5FbfcCzR7j-5">
          <mxGeometry relative="1" as="geometry">
            <mxPoint x="1450" y="290" as="sourcePoint" />
            <mxPoint x="1310" y="180" as="targetPoint" />
          </mxGeometry>
        </mxCell>
        <mxCell id="rk89OR3VtX5FbfcCzR7j-53" value="" style="endArrow=none;html=1;rounded=0;exitX=0.5;exitY=0;exitDx=0;exitDy=0;entryX=0.5;entryY=1;entryDx=0;entryDy=0;" edge="1" source="rk89OR3VtX5FbfcCzR7j-52" parent="1" target="rk89OR3VtX5FbfcCzR7j-5">
          <mxGeometry relative="1" as="geometry">
            <mxPoint x="1460" y="300" as="sourcePoint" />
            <mxPoint x="1320" y="190" as="targetPoint" />
          </mxGeometry>
        </mxCell>
        <mxCell id="rk89OR3VtX5FbfcCzR7j-59" value="Has Info" style="shape=rhombus;double=1;perimeter=rhombusPerimeter;whiteSpace=wrap;html=1;align=center;" vertex="1" parent="1">
          <mxGeometry x="1010" y="55" width="120" height="60" as="geometry" />
        </mxCell>
        <mxCell id="rk89OR3VtX5FbfcCzR7j-60" value="" style="endArrow=none;html=1;rounded=0;exitX=1;exitY=0.5;exitDx=0;exitDy=0;entryX=1;entryY=0.5;entryDx=0;entryDy=0;" edge="1" parent="1" source="rk89OR3VtX5FbfcCzR7j-5" target="rk89OR3VtX5FbfcCzR7j-59">
          <mxGeometry relative="1" as="geometry">
            <mxPoint x="1300" y="-269.99" as="sourcePoint" />
            <mxPoint x="1330" y="-129.99" as="targetPoint" />
          </mxGeometry>
        </mxCell>
        <mxCell id="rk89OR3VtX5FbfcCzR7j-61" value="1" style="resizable=0;html=1;whiteSpace=wrap;align=right;verticalAlign=bottom;" connectable="0" vertex="1" parent="rk89OR3VtX5FbfcCzR7j-60">
          <mxGeometry x="1" relative="1" as="geometry">
            <mxPoint x="5" y="1" as="offset" />
          </mxGeometry>
        </mxCell>
        <mxCell id="rk89OR3VtX5FbfcCzR7j-87" value="Auction" style="whiteSpace=wrap;html=1;align=center;" vertex="1" parent="1">
          <mxGeometry x="30" y="-90" width="100" height="40" as="geometry" />
        </mxCell>
        <mxCell id="rk89OR3VtX5FbfcCzR7j-88" value="" style="endArrow=none;html=1;rounded=0;exitX=1;exitY=0.5;exitDx=0;exitDy=0;entryX=0;entryY=0.5;entryDx=0;entryDy=0;" edge="1" source="rk89OR3VtX5FbfcCzR7j-302" target="rk89OR3VtX5FbfcCzR7j-96" parent="1">
          <mxGeometry relative="1" as="geometry">
            <mxPoint x="279.1803278688526" y="150" as="sourcePoint" />
            <mxPoint x="-40" y="290" as="targetPoint" />
          </mxGeometry>
        </mxCell>
        <mxCell id="rk89OR3VtX5FbfcCzR7j-89" value="&lt;div&gt;&lt;br&gt;&lt;/div&gt;&lt;div&gt;N&lt;br&gt;&lt;/div&gt;" style="resizable=0;html=1;whiteSpace=wrap;align=right;verticalAlign=bottom;" connectable="0" vertex="1" parent="rk89OR3VtX5FbfcCzR7j-88">
          <mxGeometry x="1" relative="1" as="geometry">
            <mxPoint x="2" y="-1" as="offset" />
          </mxGeometry>
        </mxCell>
        <mxCell id="rk89OR3VtX5FbfcCzR7j-92" value="" style="endArrow=none;html=1;rounded=0;exitX=0.5;exitY=1;exitDx=0;exitDy=0;entryX=0.5;entryY=0;entryDx=0;entryDy=0;" edge="1" source="rk89OR3VtX5FbfcCzR7j-90" target="rk89OR3VtX5FbfcCzR7j-87" parent="1">
          <mxGeometry relative="1" as="geometry">
            <mxPoint x="200" y="-135" as="sourcePoint" />
            <mxPoint x="100" y="-65" as="targetPoint" />
          </mxGeometry>
        </mxCell>
        <mxCell id="rk89OR3VtX5FbfcCzR7j-96" value="Sells" style="shape=rhombus;perimeter=rhombusPerimeter;whiteSpace=wrap;html=1;align=center;" vertex="1" parent="1">
          <mxGeometry x="430" y="10" width="120" height="60" as="geometry" />
        </mxCell>
        <mxCell id="rk89OR3VtX5FbfcCzR7j-98" value="" style="endArrow=none;html=1;rounded=0;exitX=0;exitY=0.5;exitDx=0;exitDy=0;entryX=1;entryY=0.5;entryDx=0;entryDy=0;" edge="1" parent="1" source="rk89OR3VtX5FbfcCzR7j-1" target="rk89OR3VtX5FbfcCzR7j-96">
          <mxGeometry relative="1" as="geometry">
            <mxPoint x="310" y="360" as="sourcePoint" />
            <mxPoint x="310" y="300" as="targetPoint" />
          </mxGeometry>
        </mxCell>
        <mxCell id="rk89OR3VtX5FbfcCzR7j-99" value="N" style="resizable=0;html=1;whiteSpace=wrap;align=right;verticalAlign=bottom;" connectable="0" vertex="1" parent="rk89OR3VtX5FbfcCzR7j-98">
          <mxGeometry x="1" relative="1" as="geometry">
            <mxPoint x="4" y="-3" as="offset" />
          </mxGeometry>
        </mxCell>
        <mxCell id="rk89OR3VtX5FbfcCzR7j-102" value="" style="endArrow=none;html=1;rounded=0;exitX=0.5;exitY=1;exitDx=0;exitDy=0;entryX=0.5;entryY=0;entryDx=0;entryDy=0;" edge="1" parent="1" source="rk89OR3VtX5FbfcCzR7j-101" target="rk89OR3VtX5FbfcCzR7j-87">
          <mxGeometry relative="1" as="geometry">
            <mxPoint x="-40" y="-105" as="sourcePoint" />
            <mxPoint x="60" y="-45" as="targetPoint" />
          </mxGeometry>
        </mxCell>
        <mxCell id="rk89OR3VtX5FbfcCzR7j-114" value="" style="endArrow=none;html=1;rounded=0;exitX=0.5;exitY=1;exitDx=0;exitDy=0;entryX=0.5;entryY=0;entryDx=0;entryDy=0;" edge="1" source="rk89OR3VtX5FbfcCzR7j-113" parent="1" target="rk89OR3VtX5FbfcCzR7j-87">
          <mxGeometry relative="1" as="geometry">
            <mxPoint x="-30" y="-95" as="sourcePoint" />
            <mxPoint x="-40" y="-85" as="targetPoint" />
          </mxGeometry>
        </mxCell>
        <mxCell id="rk89OR3VtX5FbfcCzR7j-116" value="" style="endArrow=none;html=1;rounded=0;exitX=0.5;exitY=1;exitDx=0;exitDy=0;entryX=0.5;entryY=0;entryDx=0;entryDy=0;" edge="1" source="rk89OR3VtX5FbfcCzR7j-115" parent="1" target="rk89OR3VtX5FbfcCzR7j-87">
          <mxGeometry relative="1" as="geometry">
            <mxPoint x="-20" y="-85" as="sourcePoint" />
            <mxPoint x="70" y="-35" as="targetPoint" />
          </mxGeometry>
        </mxCell>
        <mxCell id="rk89OR3VtX5FbfcCzR7j-120" value="" style="endArrow=none;html=1;rounded=0;exitX=0.5;exitY=1;exitDx=0;exitDy=0;entryX=0.5;entryY=0;entryDx=0;entryDy=0;" edge="1" source="rk89OR3VtX5FbfcCzR7j-119" parent="1" target="rk89OR3VtX5FbfcCzR7j-87">
          <mxGeometry relative="1" as="geometry">
            <mxPoint x="-230" y="-65" as="sourcePoint" />
            <mxPoint x="-140" y="-15" as="targetPoint" />
          </mxGeometry>
        </mxCell>
        <mxCell id="rk89OR3VtX5FbfcCzR7j-122" value="Bids" style="whiteSpace=wrap;html=1;align=center;direction=west;" vertex="1" parent="1">
          <mxGeometry x="30" y="350" width="100" height="40" as="geometry" />
        </mxCell>
        <mxCell id="rk89OR3VtX5FbfcCzR7j-123" value="" style="endArrow=none;html=1;rounded=0;exitX=1;exitY=0.5;exitDx=0;exitDy=0;entryX=0;entryY=0.5;entryDx=0;entryDy=0;" edge="1" source="rk89OR3VtX5FbfcCzR7j-302" target="rk89OR3VtX5FbfcCzR7j-131" parent="1">
          <mxGeometry relative="1" as="geometry">
            <mxPoint x="279.1803278688526" y="150" as="sourcePoint" />
            <mxPoint x="350" y="270" as="targetPoint" />
          </mxGeometry>
        </mxCell>
        <mxCell id="rk89OR3VtX5FbfcCzR7j-124" value="&lt;div&gt;&lt;br&gt;&lt;/div&gt;&lt;div&gt;N&lt;br&gt;&lt;/div&gt;" style="resizable=0;html=1;whiteSpace=wrap;align=right;verticalAlign=bottom;" connectable="0" vertex="1" parent="rk89OR3VtX5FbfcCzR7j-123">
          <mxGeometry x="1" relative="1" as="geometry">
            <mxPoint x="-6" y="-2" as="offset" />
          </mxGeometry>
        </mxCell>
        <mxCell id="rk89OR3VtX5FbfcCzR7j-128" value="" style="endArrow=none;html=1;rounded=0;exitX=0.5;exitY=0;exitDx=0;exitDy=0;entryX=0.5;entryY=0;entryDx=0;entryDy=0;" edge="1" source="rk89OR3VtX5FbfcCzR7j-126" target="rk89OR3VtX5FbfcCzR7j-122" parent="1">
          <mxGeometry relative="1" as="geometry">
            <mxPoint x="119" y="333" as="sourcePoint" />
            <mxPoint x="69" y="453" as="targetPoint" />
          </mxGeometry>
        </mxCell>
        <mxCell id="rk89OR3VtX5FbfcCzR7j-129" value="" style="endArrow=none;html=1;rounded=0;exitX=0.5;exitY=0;exitDx=0;exitDy=0;entryX=0.5;entryY=0;entryDx=0;entryDy=0;" edge="1" source="rk89OR3VtX5FbfcCzR7j-130" target="rk89OR3VtX5FbfcCzR7j-122" parent="1">
          <mxGeometry relative="1" as="geometry">
            <mxPoint x="-51" y="383" as="sourcePoint" />
            <mxPoint x="-61" y="423" as="targetPoint" />
          </mxGeometry>
        </mxCell>
        <mxCell id="rk89OR3VtX5FbfcCzR7j-132" value="" style="endArrow=none;html=1;rounded=0;entryX=1;entryY=0.5;entryDx=0;entryDy=0;exitX=0;exitY=0.5;exitDx=0;exitDy=0;" edge="1" target="rk89OR3VtX5FbfcCzR7j-131" parent="1" source="rk89OR3VtX5FbfcCzR7j-1">
          <mxGeometry relative="1" as="geometry">
            <mxPoint x="250" y="140" as="sourcePoint" />
            <mxPoint x="190" y="540" as="targetPoint" />
          </mxGeometry>
        </mxCell>
        <mxCell id="rk89OR3VtX5FbfcCzR7j-133" value="N" style="resizable=0;html=1;whiteSpace=wrap;align=right;verticalAlign=bottom;" connectable="0" vertex="1" parent="rk89OR3VtX5FbfcCzR7j-132">
          <mxGeometry x="1" relative="1" as="geometry">
            <mxPoint x="3" y="-2" as="offset" />
          </mxGeometry>
        </mxCell>
        <mxCell id="rk89OR3VtX5FbfcCzR7j-137" value="" style="endArrow=none;html=1;rounded=0;exitX=0.5;exitY=1;exitDx=0;exitDy=0;entryX=0.5;entryY=0;entryDx=0;entryDy=0;" edge="1" source="rk89OR3VtX5FbfcCzR7j-136" target="rk89OR3VtX5FbfcCzR7j-87" parent="1">
          <mxGeometry relative="1" as="geometry">
            <mxPoint x="220" y="-335" as="sourcePoint" />
            <mxPoint x="140" y="-65" as="targetPoint" />
          </mxGeometry>
        </mxCell>
        <mxCell id="rk89OR3VtX5FbfcCzR7j-139" value="" style="endArrow=none;html=1;rounded=0;exitX=0.5;exitY=0;exitDx=0;exitDy=0;entryX=0.5;entryY=0;entryDx=0;entryDy=0;" edge="1" source="rk89OR3VtX5FbfcCzR7j-138" target="rk89OR3VtX5FbfcCzR7j-122" parent="1">
          <mxGeometry relative="1" as="geometry">
            <mxPoint x="-81" y="413.0000000000002" as="sourcePoint" />
            <mxPoint x="39" y="483" as="targetPoint" />
          </mxGeometry>
        </mxCell>
        <mxCell id="rk89OR3VtX5FbfcCzR7j-126" value="bid_id" style="ellipse;whiteSpace=wrap;html=1;align=center;fontStyle=4" vertex="1" parent="1">
          <mxGeometry x="79" y="458" width="100" height="40" as="geometry" />
        </mxCell>
        <mxCell id="rk89OR3VtX5FbfcCzR7j-130" value="bid_value" style="ellipse;whiteSpace=wrap;html=1;align=center;fontStyle=0;" vertex="1" parent="1">
          <mxGeometry x="126" y="408" width="100" height="40" as="geometry" />
        </mxCell>
        <mxCell id="rk89OR3VtX5FbfcCzR7j-136" value="min_increment" style="ellipse;whiteSpace=wrap;html=1;align=center;" vertex="1" parent="1">
          <mxGeometry x="-90" y="-145" width="100" height="40" as="geometry" />
        </mxCell>
        <mxCell id="rk89OR3VtX5FbfcCzR7j-15" value="pwd" style="ellipse;whiteSpace=wrap;html=1;align=center;" vertex="1" parent="1">
          <mxGeometry x="890" y="-55" width="100" height="40" as="geometry" />
        </mxCell>
        <mxCell id="rk89OR3VtX5FbfcCzR7j-16" value="u_name" style="ellipse;whiteSpace=wrap;html=1;align=center;fontStyle=0" vertex="1" parent="1">
          <mxGeometry x="810" y="-15" width="100" height="40" as="geometry" />
        </mxCell>
        <mxCell id="rk89OR3VtX5FbfcCzR7j-22" value="uid" style="ellipse;whiteSpace=wrap;html=1;align=center;fontStyle=4;" vertex="1" parent="1">
          <mxGeometry x="730" y="-50" width="100" height="40" as="geometry" />
        </mxCell>
        <mxCell id="rk89OR3VtX5FbfcCzR7j-90" value="auction_id" style="ellipse;whiteSpace=wrap;html=1;align=center;fontStyle=4" vertex="1" parent="1">
          <mxGeometry x="150" y="-145" width="100" height="40" as="geometry" />
        </mxCell>
        <mxCell id="rk89OR3VtX5FbfcCzR7j-101" value="open_time" style="ellipse;whiteSpace=wrap;html=1;align=center;" vertex="1" parent="1">
          <mxGeometry x="-10" y="-225" width="100" height="40" as="geometry" />
        </mxCell>
        <mxCell id="rk89OR3VtX5FbfcCzR7j-115" value="min_price" style="ellipse;whiteSpace=wrap;html=1;align=center;" vertex="1" parent="1">
          <mxGeometry x="-90" y="-195" width="100" height="40" as="geometry" />
        </mxCell>
        <mxCell id="rk89OR3VtX5FbfcCzR7j-119" value="status" style="ellipse;whiteSpace=wrap;html=1;align=center;" vertex="1" parent="1">
          <mxGeometry x="97" y="-225" width="100" height="40" as="geometry" />
        </mxCell>
        <mxCell id="rk89OR3VtX5FbfcCzR7j-46" value="fi.name" style="ellipse;whiteSpace=wrap;html=1;align=center;direction=west;" vertex="1" parent="1">
          <mxGeometry x="1250" y="-50" width="100" height="40" as="geometry" />
        </mxCell>
        <mxCell id="rk89OR3VtX5FbfcCzR7j-48" value="la.name" style="ellipse;whiteSpace=wrap;html=1;align=center;direction=west;" vertex="1" parent="1">
          <mxGeometry x="1220" width="100" height="40" as="geometry" />
        </mxCell>
        <mxCell id="rk89OR3VtX5FbfcCzR7j-50" value="addr" style="ellipse;whiteSpace=wrap;html=1;align=center;" vertex="1" parent="1">
          <mxGeometry x="1350" y="-50" width="100" height="40" as="geometry" />
        </mxCell>
        <mxCell id="rk89OR3VtX5FbfcCzR7j-151" value="Bidding Item" style="shape=rhombus;perimeter=rhombusPerimeter;whiteSpace=wrap;html=1;align=center;" vertex="1" parent="1">
          <mxGeometry x="-90.00000000000001" y="153.5" width="120" height="60" as="geometry" />
        </mxCell>
        <mxCell id="rk89OR3VtX5FbfcCzR7j-152" value="" style="endArrow=none;html=1;rounded=0;entryX=0.5;entryY=0;entryDx=0;entryDy=0;exitX=0.5;exitY=1;exitDx=0;exitDy=0;" edge="1" target="rk89OR3VtX5FbfcCzR7j-151" parent="1" source="rk89OR3VtX5FbfcCzR7j-87">
          <mxGeometry relative="1" as="geometry">
            <mxPoint x="40" y="270" as="sourcePoint" />
            <mxPoint x="320" y="660" as="targetPoint" />
          </mxGeometry>
        </mxCell>
        <mxCell id="rk89OR3VtX5FbfcCzR7j-153" value="N" style="resizable=0;html=1;whiteSpace=wrap;align=right;verticalAlign=bottom;" connectable="0" vertex="1" parent="rk89OR3VtX5FbfcCzR7j-152">
          <mxGeometry x="1" relative="1" as="geometry">
            <mxPoint x="15" y="3" as="offset" />
          </mxGeometry>
        </mxCell>
        <mxCell id="rk89OR3VtX5FbfcCzR7j-149" value="" style="endArrow=none;html=1;rounded=0;exitX=0.5;exitY=1;exitDx=0;exitDy=0;entryX=0.5;entryY=1;entryDx=0;entryDy=0;" edge="1" target="rk89OR3VtX5FbfcCzR7j-151" parent="1" source="rk89OR3VtX5FbfcCzR7j-122">
          <mxGeometry relative="1" as="geometry">
            <mxPoint x="-210.00000000000023" y="350" as="sourcePoint" />
            <mxPoint x="-149.99999999999977" y="330" as="targetPoint" />
          </mxGeometry>
        </mxCell>
        <mxCell id="rk89OR3VtX5FbfcCzR7j-150" value="1" style="resizable=0;html=1;whiteSpace=wrap;align=right;verticalAlign=bottom;direction=west;" connectable="0" vertex="1" parent="rk89OR3VtX5FbfcCzR7j-149">
          <mxGeometry x="1" relative="1" as="geometry">
            <mxPoint x="-8" y="11" as="offset" />
          </mxGeometry>
        </mxCell>
        <mxCell id="rk89OR3VtX5FbfcCzR7j-159" value="Item Info" style="whiteSpace=wrap;html=1;align=center;direction=north;" vertex="1" parent="1">
          <mxGeometry x="-610" y="10" width="90" height="40" as="geometry" />
        </mxCell>
        <mxCell id="rk89OR3VtX5FbfcCzR7j-161" value="" style="endArrow=none;html=1;rounded=0;exitX=1;exitY=0.5;exitDx=0;exitDy=0;entryX=0;entryY=0.5;entryDx=0;entryDy=0;" edge="1" source="rk89OR3VtX5FbfcCzR7j-170" target="rk89OR3VtX5FbfcCzR7j-159" parent="1">
          <mxGeometry relative="1" as="geometry">
            <mxPoint x="-635" y="-7.5" as="sourcePoint" />
            <mxPoint x="-595" y="62.5" as="targetPoint" />
          </mxGeometry>
        </mxCell>
        <mxCell id="rk89OR3VtX5FbfcCzR7j-162" value="" style="endArrow=none;html=1;rounded=0;exitX=1;exitY=0.5;exitDx=0;exitDy=0;entryX=0;entryY=0.5;entryDx=0;entryDy=0;" edge="1" source="rk89OR3VtX5FbfcCzR7j-171" target="rk89OR3VtX5FbfcCzR7j-159" parent="1">
          <mxGeometry relative="1" as="geometry">
            <mxPoint x="-805" y="42.5" as="sourcePoint" />
            <mxPoint x="-520" y="80" as="targetPoint" />
          </mxGeometry>
        </mxCell>
        <mxCell id="rk89OR3VtX5FbfcCzR7j-167" value="" style="endArrow=none;html=1;rounded=0;exitX=0.5;exitY=1;exitDx=0;exitDy=0;entryX=0;entryY=0.5;entryDx=0;entryDy=0;" edge="1" source="rk89OR3VtX5FbfcCzR7j-168" target="rk89OR3VtX5FbfcCzR7j-159" parent="1">
          <mxGeometry relative="1" as="geometry">
            <mxPoint x="-565" y="-157.5" as="sourcePoint" />
            <mxPoint x="-595" y="62.5" as="targetPoint" />
          </mxGeometry>
        </mxCell>
        <mxCell id="rk89OR3VtX5FbfcCzR7j-168" value="name" style="ellipse;whiteSpace=wrap;html=1;align=center;" vertex="1" parent="1">
          <mxGeometry x="-590" y="141" width="100" height="40" as="geometry" />
        </mxCell>
        <mxCell id="rk89OR3VtX5FbfcCzR7j-170" value="id" style="ellipse;whiteSpace=wrap;html=1;align=center;fontStyle=4" vertex="1" parent="1">
          <mxGeometry x="-660" y="183.5" width="100" height="40" as="geometry" />
        </mxCell>
        <mxCell id="rk89OR3VtX5FbfcCzR7j-171" value="descr" style="ellipse;whiteSpace=wrap;html=1;align=center;fontStyle=0;" vertex="1" parent="1">
          <mxGeometry x="-620" y="233.5" width="100" height="40" as="geometry" />
        </mxCell>
        <mxCell id="rk89OR3VtX5FbfcCzR7j-181" value="close_time" style="ellipse;whiteSpace=wrap;html=1;align=center;" vertex="1" parent="1">
          <mxGeometry x="117" y="-185" width="100" height="40" as="geometry" />
        </mxCell>
        <mxCell id="rk89OR3VtX5FbfcCzR7j-187" value="Has Item Info" style="shape=rhombus;perimeter=rhombusPerimeter;whiteSpace=wrap;html=1;align=center;" vertex="1" parent="1">
          <mxGeometry x="-490" y="-2.5" width="120" height="60" as="geometry" />
        </mxCell>
        <mxCell id="rk89OR3VtX5FbfcCzR7j-188" value="" style="endArrow=none;html=1;rounded=0;entryX=1;entryY=0.5;entryDx=0;entryDy=0;exitX=0;exitY=0.5;exitDx=0;exitDy=0;" edge="1" target="rk89OR3VtX5FbfcCzR7j-187" parent="1" source="rk89OR3VtX5FbfcCzR7j-302">
          <mxGeometry relative="1" as="geometry">
            <mxPoint x="30" y="130" as="sourcePoint" />
            <mxPoint x="190" y="670" as="targetPoint" />
          </mxGeometry>
        </mxCell>
        <mxCell id="rk89OR3VtX5FbfcCzR7j-189" value="1" style="resizable=0;html=1;whiteSpace=wrap;align=right;verticalAlign=bottom;" connectable="0" vertex="1" parent="rk89OR3VtX5FbfcCzR7j-188">
          <mxGeometry x="1" relative="1" as="geometry" />
        </mxCell>
        <mxCell id="rk89OR3VtX5FbfcCzR7j-190" value="" style="endArrow=none;html=1;rounded=0;exitX=0.5;exitY=1;exitDx=0;exitDy=0;entryX=0;entryY=0.5;entryDx=0;entryDy=0;" edge="1" target="rk89OR3VtX5FbfcCzR7j-187" parent="1" source="rk89OR3VtX5FbfcCzR7j-159">
          <mxGeometry relative="1" as="geometry">
            <mxPoint x="-400" y="280" as="sourcePoint" />
            <mxPoint x="-530" y="15" as="targetPoint" />
          </mxGeometry>
        </mxCell>
        <mxCell id="rk89OR3VtX5FbfcCzR7j-191" value="1" style="resizable=0;html=1;whiteSpace=wrap;align=right;verticalAlign=bottom;direction=west;" connectable="0" vertex="1" parent="rk89OR3VtX5FbfcCzR7j-190">
          <mxGeometry x="1" relative="1" as="geometry" />
        </mxCell>
        <mxCell id="rk89OR3VtX5FbfcCzR7j-192" value="Item Attributes" style="whiteSpace=wrap;html=1;align=center;direction=north;" vertex="1" parent="1">
          <mxGeometry x="-920" y="62.5" width="90" height="40" as="geometry" />
        </mxCell>
        <mxCell id="rk89OR3VtX5FbfcCzR7j-193" value="" style="endArrow=none;html=1;rounded=0;exitX=0.5;exitY=0;exitDx=0;exitDy=0;entryX=0;entryY=0.5;entryDx=0;entryDy=0;" edge="1" source="rk89OR3VtX5FbfcCzR7j-198" target="rk89OR3VtX5FbfcCzR7j-192" parent="1">
          <mxGeometry relative="1" as="geometry">
            <mxPoint x="-735" y="258.5" as="sourcePoint" />
            <mxPoint x="-745" y="278.5" as="targetPoint" />
          </mxGeometry>
        </mxCell>
        <mxCell id="rk89OR3VtX5FbfcCzR7j-194" value="" style="endArrow=none;html=1;rounded=0;exitX=0.5;exitY=0;exitDx=0;exitDy=0;entryX=0;entryY=0.5;entryDx=0;entryDy=0;" edge="1" source="rk89OR3VtX5FbfcCzR7j-199" target="rk89OR3VtX5FbfcCzR7j-192" parent="1">
          <mxGeometry relative="1" as="geometry">
            <mxPoint x="-785" y="208.5" as="sourcePoint" />
            <mxPoint x="-745" y="278.5" as="targetPoint" />
          </mxGeometry>
        </mxCell>
        <mxCell id="rk89OR3VtX5FbfcCzR7j-198" value="value" style="ellipse;whiteSpace=wrap;html=1;align=center;" vertex="1" parent="1">
          <mxGeometry x="-987.5" y="132.5" width="100" height="40" as="geometry" />
        </mxCell>
        <mxCell id="rk89OR3VtX5FbfcCzR7j-199" value="id" style="ellipse;whiteSpace=wrap;html=1;align=center;fontStyle=4" vertex="1" parent="1">
          <mxGeometry x="-862.5" y="132.5" width="100" height="40" as="geometry" />
        </mxCell>
        <mxCell id="rk89OR3VtX5FbfcCzR7j-201" value="Has Attributes" style="shape=rhombus;perimeter=rhombusPerimeter;whiteSpace=wrap;html=1;align=center;" vertex="1" parent="1">
          <mxGeometry x="-800" y="-7.5" width="125" height="65" as="geometry" />
        </mxCell>
        <mxCell id="rk89OR3VtX5FbfcCzR7j-202" value="" style="endArrow=none;html=1;rounded=0;entryX=0.5;entryY=0;entryDx=0;entryDy=0;exitX=0.5;exitY=0;exitDx=0;exitDy=0;" edge="1" target="rk89OR3VtX5FbfcCzR7j-201" parent="1" source="rk89OR3VtX5FbfcCzR7j-159">
          <mxGeometry relative="1" as="geometry">
            <mxPoint x="-430" y="280" as="sourcePoint" />
            <mxPoint x="-160" y="720" as="targetPoint" />
          </mxGeometry>
        </mxCell>
        <mxCell id="rk89OR3VtX5FbfcCzR7j-203" value="N" style="resizable=0;html=1;whiteSpace=wrap;align=right;verticalAlign=bottom;" connectable="0" vertex="1" parent="rk89OR3VtX5FbfcCzR7j-202">
          <mxGeometry x="1" relative="1" as="geometry" />
        </mxCell>
        <mxCell id="rk89OR3VtX5FbfcCzR7j-204" value="" style="endArrow=none;html=1;rounded=0;exitX=0.5;exitY=1;exitDx=0;exitDy=0;entryX=0.5;entryY=1;entryDx=0;entryDy=0;" edge="1" target="rk89OR3VtX5FbfcCzR7j-201" parent="1" source="rk89OR3VtX5FbfcCzR7j-192">
          <mxGeometry relative="1" as="geometry">
            <mxPoint x="-620" y="340" as="sourcePoint" />
            <mxPoint x="-629.9999999999998" y="390" as="targetPoint" />
          </mxGeometry>
        </mxCell>
        <mxCell id="rk89OR3VtX5FbfcCzR7j-205" value="N" style="resizable=0;html=1;whiteSpace=wrap;align=right;verticalAlign=bottom;direction=west;" connectable="0" vertex="1" parent="rk89OR3VtX5FbfcCzR7j-204">
          <mxGeometry x="1" relative="1" as="geometry">
            <mxPoint y="20" as="offset" />
          </mxGeometry>
        </mxCell>
        <mxCell id="rk89OR3VtX5FbfcCzR7j-206" value="Meta Item Data" style="whiteSpace=wrap;html=1;align=center;direction=east;" vertex="1" parent="1">
          <mxGeometry x="-615" y="-300" width="100" height="40" as="geometry" />
        </mxCell>
        <mxCell id="rk89OR3VtX5FbfcCzR7j-215" value="Contains Cat." style="shape=rhombus;perimeter=rhombusPerimeter;whiteSpace=wrap;html=1;align=center;direction=west;" vertex="1" parent="1">
          <mxGeometry x="-550" y="-142.5" width="140" height="72.5" as="geometry" />
        </mxCell>
        <mxCell id="rk89OR3VtX5FbfcCzR7j-216" value="" style="endArrow=none;html=1;rounded=0;exitX=0.5;exitY=1;exitDx=0;exitDy=0;entryX=0.5;entryY=1;entryDx=0;entryDy=0;" edge="1" source="rk89OR3VtX5FbfcCzR7j-206" target="rk89OR3VtX5FbfcCzR7j-215" parent="1">
          <mxGeometry relative="1" as="geometry">
            <mxPoint x="-800" y="-235" as="sourcePoint" />
            <mxPoint x="-809.9999999999998" y="-185" as="targetPoint" />
          </mxGeometry>
        </mxCell>
        <mxCell id="rk89OR3VtX5FbfcCzR7j-217" value="N" style="resizable=0;html=1;whiteSpace=wrap;align=right;verticalAlign=bottom;direction=west;" connectable="0" vertex="1" parent="rk89OR3VtX5FbfcCzR7j-216">
          <mxGeometry x="1" relative="1" as="geometry" />
        </mxCell>
        <mxCell id="rk89OR3VtX5FbfcCzR7j-218" value="" style="endArrow=none;html=1;rounded=0;entryX=0.5;entryY=0;entryDx=0;entryDy=0;exitX=1;exitY=0.5;exitDx=0;exitDy=0;" edge="1" target="rk89OR3VtX5FbfcCzR7j-215" parent="1" source="rk89OR3VtX5FbfcCzR7j-159">
          <mxGeometry relative="1" as="geometry">
            <mxPoint x="-435" y="-55" as="sourcePoint" />
            <mxPoint x="-90" y="455" as="targetPoint" />
          </mxGeometry>
        </mxCell>
        <mxCell id="rk89OR3VtX5FbfcCzR7j-219" value="N" style="resizable=0;html=1;whiteSpace=wrap;align=right;verticalAlign=bottom;" connectable="0" vertex="1" parent="rk89OR3VtX5FbfcCzR7j-218">
          <mxGeometry x="1" relative="1" as="geometry">
            <mxPoint x="5" y="19" as="offset" />
          </mxGeometry>
        </mxCell>
        <mxCell id="rk89OR3VtX5FbfcCzR7j-224" value="Category" style="whiteSpace=wrap;html=1;align=center;direction=east;" vertex="1" parent="1">
          <mxGeometry x="-540" y="-500" width="100" height="40" as="geometry" />
        </mxCell>
        <mxCell id="rk89OR3VtX5FbfcCzR7j-227" value="" style="endArrow=none;html=1;rounded=0;exitX=0.5;exitY=1;exitDx=0;exitDy=0;entryX=0.5;entryY=0;entryDx=0;entryDy=0;" edge="1" source="rk89OR3VtX5FbfcCzR7j-230" target="rk89OR3VtX5FbfcCzR7j-224" parent="1">
          <mxGeometry relative="1" as="geometry">
            <mxPoint x="-1260" y="-310" as="sourcePoint" />
            <mxPoint x="-1050" y="-290" as="targetPoint" />
          </mxGeometry>
        </mxCell>
        <mxCell id="rk89OR3VtX5FbfcCzR7j-229" value="id" style="ellipse;whiteSpace=wrap;html=1;align=center;fontStyle=4;direction=east;" vertex="1" parent="1">
          <mxGeometry x="-490" y="-580" width="100" height="40" as="geometry" />
        </mxCell>
        <mxCell id="rk89OR3VtX5FbfcCzR7j-230" value="name" style="ellipse;whiteSpace=wrap;html=1;align=center;fontStyle=0;" vertex="1" parent="1">
          <mxGeometry x="-605" y="-580" width="100" height="40" as="geometry" />
        </mxCell>
        <mxCell id="rk89OR3VtX5FbfcCzR7j-231" value="Has Categories" style="shape=rhombus;perimeter=rhombusPerimeter;whiteSpace=wrap;html=1;align=center;direction=west;" vertex="1" parent="1">
          <mxGeometry x="-520" y="-420" width="130" height="70" as="geometry" />
        </mxCell>
        <mxCell id="rk89OR3VtX5FbfcCzR7j-232" value="" style="endArrow=none;html=1;rounded=0;exitX=0.5;exitY=1;exitDx=0;exitDy=0;entryX=0.5;entryY=1;entryDx=0;entryDy=0;" edge="1" source="rk89OR3VtX5FbfcCzR7j-224" target="rk89OR3VtX5FbfcCzR7j-231" parent="1">
          <mxGeometry relative="1" as="geometry">
            <mxPoint x="-1010" y="-335" as="sourcePoint" />
            <mxPoint x="-1019.9999999999998" y="-285" as="targetPoint" />
          </mxGeometry>
        </mxCell>
        <mxCell id="rk89OR3VtX5FbfcCzR7j-233" value="N" style="resizable=0;html=1;whiteSpace=wrap;align=right;verticalAlign=bottom;direction=west;" connectable="0" vertex="1" parent="rk89OR3VtX5FbfcCzR7j-232">
          <mxGeometry x="1" relative="1" as="geometry">
            <mxPoint x="15" y="-5" as="offset" />
          </mxGeometry>
        </mxCell>
        <mxCell id="rk89OR3VtX5FbfcCzR7j-234" value="" style="endArrow=none;html=1;rounded=0;entryX=0.5;entryY=0;entryDx=0;entryDy=0;exitX=0.5;exitY=0;exitDx=0;exitDy=0;" edge="1" target="rk89OR3VtX5FbfcCzR7j-231" parent="1" source="rk89OR3VtX5FbfcCzR7j-206">
          <mxGeometry relative="1" as="geometry">
            <mxPoint x="-785" y="-180" as="sourcePoint" />
            <mxPoint x="-560" y="5" as="targetPoint" />
          </mxGeometry>
        </mxCell>
        <mxCell id="rk89OR3VtX5FbfcCzR7j-235" value="N" style="resizable=0;html=1;whiteSpace=wrap;align=right;verticalAlign=bottom;" connectable="0" vertex="1" parent="rk89OR3VtX5FbfcCzR7j-234">
          <mxGeometry x="1" relative="1" as="geometry">
            <mxPoint x="-15" y="10" as="offset" />
          </mxGeometry>
        </mxCell>
        <mxCell id="rk89OR3VtX5FbfcCzR7j-236" value="" style="endArrow=none;html=1;rounded=0;exitX=0.5;exitY=1;exitDx=0;exitDy=0;entryX=0.5;entryY=0;entryDx=0;entryDy=0;" edge="1" source="rk89OR3VtX5FbfcCzR7j-229" target="rk89OR3VtX5FbfcCzR7j-224" parent="1">
          <mxGeometry relative="1" as="geometry">
            <mxPoint x="-930" y="-480" as="sourcePoint" />
            <mxPoint x="-910" y="-340" as="targetPoint" />
          </mxGeometry>
        </mxCell>
        <mxCell id="rk89OR3VtX5FbfcCzR7j-238" value="contains attributes" style="shape=rhombus;perimeter=rhombusPerimeter;whiteSpace=wrap;html=1;align=center;direction=west;" vertex="1" parent="1">
          <mxGeometry x="-932.5" y="-440" width="130" height="70" as="geometry" />
        </mxCell>
        <mxCell id="rk89OR3VtX5FbfcCzR7j-239" value="" style="endArrow=none;html=1;rounded=0;entryX=1;entryY=0.5;entryDx=0;entryDy=0;exitX=0.5;exitY=0;exitDx=0;exitDy=0;" edge="1" target="rk89OR3VtX5FbfcCzR7j-238" parent="1" source="rk89OR3VtX5FbfcCzR7j-243">
          <mxGeometry relative="1" as="geometry">
            <mxPoint x="-1080" y="-180" as="sourcePoint" />
            <mxPoint x="-1149.9999999999998" y="-315" as="targetPoint" />
          </mxGeometry>
        </mxCell>
        <mxCell id="rk89OR3VtX5FbfcCzR7j-240" value="N" style="resizable=0;html=1;whiteSpace=wrap;align=right;verticalAlign=bottom;direction=west;" connectable="0" vertex="1" parent="rk89OR3VtX5FbfcCzR7j-239">
          <mxGeometry x="1" relative="1" as="geometry" />
        </mxCell>
        <mxCell id="rk89OR3VtX5FbfcCzR7j-241" value="" style="endArrow=none;html=1;rounded=0;entryX=0;entryY=0.5;entryDx=0;entryDy=0;exitX=0.5;exitY=1;exitDx=0;exitDy=0;" edge="1" target="rk89OR3VtX5FbfcCzR7j-238" parent="1" source="rk89OR3VtX5FbfcCzR7j-357">
          <mxGeometry relative="1" as="geometry">
            <mxPoint x="-720" y="-110" as="sourcePoint" />
            <mxPoint x="-610" y="105" as="targetPoint" />
          </mxGeometry>
        </mxCell>
        <mxCell id="rk89OR3VtX5FbfcCzR7j-242" value="N" style="resizable=0;html=1;whiteSpace=wrap;align=right;verticalAlign=bottom;" connectable="0" vertex="1" parent="rk89OR3VtX5FbfcCzR7j-241">
          <mxGeometry x="1" relative="1" as="geometry" />
        </mxCell>
        <mxCell id="rk89OR3VtX5FbfcCzR7j-243" value="Meta Attributes" style="whiteSpace=wrap;html=1;align=center;direction=east;" vertex="1" parent="1">
          <mxGeometry x="-990" y="-340" width="100" height="40" as="geometry" />
        </mxCell>
        <mxCell id="rk89OR3VtX5FbfcCzR7j-244" value="" style="endArrow=none;html=1;rounded=0;exitX=1;exitY=0.5;exitDx=0;exitDy=0;entryX=0;entryY=0.5;entryDx=0;entryDy=0;" edge="1" source="rk89OR3VtX5FbfcCzR7j-246" target="rk89OR3VtX5FbfcCzR7j-243" parent="1">
          <mxGeometry relative="1" as="geometry">
            <mxPoint x="-1550" y="-472.5" as="sourcePoint" />
            <mxPoint x="-1340" y="-452.5" as="targetPoint" />
          </mxGeometry>
        </mxCell>
        <mxCell id="rk89OR3VtX5FbfcCzR7j-245" value="id" style="ellipse;whiteSpace=wrap;html=1;align=center;fontStyle=0;direction=east;" vertex="1" parent="1">
          <mxGeometry x="-1110" y="-370" width="100" height="40" as="geometry" />
        </mxCell>
        <mxCell id="rk89OR3VtX5FbfcCzR7j-246" value="name" style="ellipse;whiteSpace=wrap;html=1;align=center;fontStyle=0;" vertex="1" parent="1">
          <mxGeometry x="-1110" y="-312.5" width="100" height="40" as="geometry" />
        </mxCell>
        <mxCell id="rk89OR3VtX5FbfcCzR7j-247" value="" style="endArrow=none;html=1;rounded=0;exitX=1;exitY=0.5;exitDx=0;exitDy=0;entryX=0;entryY=0.5;entryDx=0;entryDy=0;" edge="1" source="rk89OR3VtX5FbfcCzR7j-245" target="rk89OR3VtX5FbfcCzR7j-243" parent="1">
          <mxGeometry relative="1" as="geometry">
            <mxPoint x="-1220" y="-642.5" as="sourcePoint" />
            <mxPoint x="-1200" y="-502.5" as="targetPoint" />
          </mxGeometry>
        </mxCell>
        <mxCell id="rk89OR3VtX5FbfcCzR7j-249" value="" style="endArrow=none;html=1;rounded=0;exitX=0.5;exitY=1;exitDx=0;exitDy=0;entryX=0.5;entryY=1;entryDx=0;entryDy=0;" edge="1" parent="1" source="rk89OR3VtX5FbfcCzR7j-50" target="rk89OR3VtX5FbfcCzR7j-5">
          <mxGeometry relative="1" as="geometry">
            <mxPoint x="1290" y="250.00000000000003" as="sourcePoint" />
            <mxPoint x="1290" y="160" as="targetPoint" />
          </mxGeometry>
        </mxCell>
        <mxCell id="rk89OR3VtX5FbfcCzR7j-52" value="email" style="ellipse;whiteSpace=wrap;html=1;align=center;fontStyle=0;direction=west;" vertex="1" parent="1">
          <mxGeometry x="1410" y="-2.5" width="100" height="40" as="geometry" />
        </mxCell>
        <mxCell id="rk89OR3VtX5FbfcCzR7j-251" value="is_active" style="ellipse;whiteSpace=wrap;html=1;align=center;" vertex="1" parent="1">
          <mxGeometry x="-21" y="453" width="100" height="40" as="geometry" />
        </mxCell>
        <mxCell id="rk89OR3VtX5FbfcCzR7j-113" value="price" style="ellipse;whiteSpace=wrap;html=1;align=center;" vertex="1" parent="1">
          <mxGeometry x="-3" y="-170" width="100" height="40" as="geometry" />
        </mxCell>
        <mxCell id="rk89OR3VtX5FbfcCzR7j-255" value="Purchased By" style="shape=rhombus;perimeter=rhombusPerimeter;whiteSpace=wrap;html=1;align=center;" vertex="1" parent="1">
          <mxGeometry x="-180" y="112.5" width="120" height="60" as="geometry" />
        </mxCell>
        <mxCell id="rk89OR3VtX5FbfcCzR7j-256" value="" style="endArrow=none;html=1;rounded=0;entryX=1;entryY=0.5;entryDx=0;entryDy=0;exitX=0.5;exitY=1;exitDx=0;exitDy=0;" edge="1" target="rk89OR3VtX5FbfcCzR7j-255" parent="1" source="rk89OR3VtX5FbfcCzR7j-87">
          <mxGeometry relative="1" as="geometry">
            <mxPoint x="-40" y="170" as="sourcePoint" />
            <mxPoint x="200" y="675" as="targetPoint" />
          </mxGeometry>
        </mxCell>
        <mxCell id="rk89OR3VtX5FbfcCzR7j-257" value="1" style="resizable=0;html=1;whiteSpace=wrap;align=right;verticalAlign=bottom;" connectable="0" vertex="1" parent="rk89OR3VtX5FbfcCzR7j-256">
          <mxGeometry x="1" relative="1" as="geometry" />
        </mxCell>
        <mxCell id="rk89OR3VtX5FbfcCzR7j-258" value="" style="endArrow=none;html=1;rounded=0;entryX=0;entryY=0.5;entryDx=0;entryDy=0;exitX=0;exitY=0.5;exitDx=0;exitDy=0;" edge="1" target="rk89OR3VtX5FbfcCzR7j-255" parent="1" source="rk89OR3VtX5FbfcCzR7j-260">
          <mxGeometry relative="1" as="geometry">
            <mxPoint x="-200" y="447.5" as="sourcePoint" />
            <mxPoint x="-299.9999999999998" y="292.5" as="targetPoint" />
          </mxGeometry>
        </mxCell>
        <mxCell id="rk89OR3VtX5FbfcCzR7j-259" value="1" style="resizable=0;html=1;whiteSpace=wrap;align=right;verticalAlign=bottom;direction=west;" connectable="0" vertex="1" parent="rk89OR3VtX5FbfcCzR7j-258">
          <mxGeometry x="1" relative="1" as="geometry">
            <mxPoint y="2" as="offset" />
          </mxGeometry>
        </mxCell>
        <mxCell id="rk89OR3VtX5FbfcCzR7j-260" value="Winning Bid" style="whiteSpace=wrap;html=1;align=center;direction=west;" vertex="1" parent="1">
          <mxGeometry x="-310" y="187.5" width="100" height="40" as="geometry" />
        </mxCell>
        <mxCell id="rk89OR3VtX5FbfcCzR7j-261" value="" style="endArrow=none;html=1;rounded=0;entryX=1;entryY=0.5;entryDx=0;entryDy=0;exitX=0.5;exitY=1;exitDx=0;exitDy=0;" edge="1" parent="1" source="rk89OR3VtX5FbfcCzR7j-122" target="rk89OR3VtX5FbfcCzR7j-268">
          <mxGeometry relative="1" as="geometry">
            <mxPoint x="80" y="500" as="sourcePoint" />
            <mxPoint x="-90" y="390" as="targetPoint" />
          </mxGeometry>
        </mxCell>
        <mxCell id="rk89OR3VtX5FbfcCzR7j-262" value="1" style="resizable=0;html=1;whiteSpace=wrap;align=right;verticalAlign=bottom;direction=west;" connectable="0" vertex="1" parent="rk89OR3VtX5FbfcCzR7j-261">
          <mxGeometry x="1" relative="1" as="geometry">
            <mxPoint y="20" as="offset" />
          </mxGeometry>
        </mxCell>
        <mxCell id="rk89OR3VtX5FbfcCzR7j-263" value="id" style="ellipse;whiteSpace=wrap;html=1;align=center;fontStyle=4;" vertex="1" parent="1">
          <mxGeometry x="-310" y="122.5" width="100" height="40" as="geometry" />
        </mxCell>
        <mxCell id="rk89OR3VtX5FbfcCzR7j-265" value="" style="endArrow=none;html=1;rounded=0;exitX=0.5;exitY=1;exitDx=0;exitDy=0;entryX=0.5;entryY=1;entryDx=0;entryDy=0;" edge="1" parent="1" source="rk89OR3VtX5FbfcCzR7j-263" target="rk89OR3VtX5FbfcCzR7j-260">
          <mxGeometry relative="1" as="geometry">
            <mxPoint x="-85.00000000000001" y="312.5" as="sourcePoint" />
            <mxPoint x="-25.000000000000004" y="257.5" as="targetPoint" />
          </mxGeometry>
        </mxCell>
        <mxCell id="rk89OR3VtX5FbfcCzR7j-268" value="Won By" style="shape=rhombus;perimeter=rhombusPerimeter;whiteSpace=wrap;html=1;align=center;" vertex="1" parent="1">
          <mxGeometry x="-180" y="217.5" width="120" height="60" as="geometry" />
        </mxCell>
        <mxCell id="rk89OR3VtX5FbfcCzR7j-269" value="" style="endArrow=none;html=1;rounded=0;entryX=0;entryY=0.5;entryDx=0;entryDy=0;exitX=0;exitY=0.5;exitDx=0;exitDy=0;" edge="1" parent="1" source="rk89OR3VtX5FbfcCzR7j-260" target="rk89OR3VtX5FbfcCzR7j-268">
          <mxGeometry relative="1" as="geometry">
            <mxPoint x="-234.99999999999997" y="262.5" as="sourcePoint" />
            <mxPoint x="-180" y="207.5" as="targetPoint" />
          </mxGeometry>
        </mxCell>
        <mxCell id="rk89OR3VtX5FbfcCzR7j-270" value="1" style="resizable=0;html=1;whiteSpace=wrap;align=right;verticalAlign=bottom;direction=west;" connectable="0" vertex="1" parent="rk89OR3VtX5FbfcCzR7j-269">
          <mxGeometry x="1" relative="1" as="geometry">
            <mxPoint x="7" y="-2" as="offset" />
          </mxGeometry>
        </mxCell>
        <mxCell id="rk89OR3VtX5FbfcCzR7j-271" value="" style="endArrow=none;html=1;rounded=0;exitX=0;exitY=0.5;exitDx=0;exitDy=0;entryX=0;entryY=0.5;entryDx=0;entryDy=0;" edge="1" target="rk89OR3VtX5FbfcCzR7j-273" parent="1" source="rk89OR3VtX5FbfcCzR7j-122">
          <mxGeometry relative="1" as="geometry">
            <mxPoint x="100" y="510" as="sourcePoint" />
            <mxPoint x="-20" y="665" as="targetPoint" />
          </mxGeometry>
        </mxCell>
        <mxCell id="rk89OR3VtX5FbfcCzR7j-272" value="1" style="resizable=0;html=1;whiteSpace=wrap;align=right;verticalAlign=bottom;" connectable="0" vertex="1" parent="rk89OR3VtX5FbfcCzR7j-271">
          <mxGeometry x="1" relative="1" as="geometry">
            <mxPoint x="1" y="-1" as="offset" />
          </mxGeometry>
        </mxCell>
        <mxCell id="rk89OR3VtX5FbfcCzR7j-273" value="bid limit alert" style="shape=rhombus;perimeter=rhombusPerimeter;whiteSpace=wrap;html=1;align=center;direction=east;" vertex="1" parent="1">
          <mxGeometry x="416.89" y="190" width="120" height="60" as="geometry" />
        </mxCell>
        <mxCell id="rk89OR3VtX5FbfcCzR7j-274" value="" style="endArrow=none;html=1;rounded=0;exitX=0.5;exitY=1;exitDx=0;exitDy=0;entryX=1;entryY=0.5;entryDx=0;entryDy=0;" edge="1" target="rk89OR3VtX5FbfcCzR7j-276" parent="1" source="rk89OR3VtX5FbfcCzR7j-1">
          <mxGeometry relative="1" as="geometry">
            <mxPoint x="680" y="355" as="sourcePoint" />
            <mxPoint x="550" y="370" as="targetPoint" />
          </mxGeometry>
        </mxCell>
        <mxCell id="rk89OR3VtX5FbfcCzR7j-275" value="N" style="resizable=0;html=1;whiteSpace=wrap;align=right;verticalAlign=bottom;" connectable="0" vertex="1" parent="rk89OR3VtX5FbfcCzR7j-274">
          <mxGeometry x="1" relative="1" as="geometry">
            <mxPoint x="3" y="-2" as="offset" />
          </mxGeometry>
        </mxCell>
        <mxCell id="rk89OR3VtX5FbfcCzR7j-276" value="creates alert" style="shape=rhombus;perimeter=rhombusPerimeter;whiteSpace=wrap;html=1;align=center;direction=east;" vertex="1" parent="1">
          <mxGeometry x="650" y="172.5" width="120" height="60" as="geometry" />
        </mxCell>
        <mxCell id="rk89OR3VtX5FbfcCzR7j-277" value="Alert" style="whiteSpace=wrap;html=1;align=center;direction=west;" vertex="1" parent="1">
          <mxGeometry x="536.89" y="263.5" width="100" height="40" as="geometry" />
        </mxCell>
        <mxCell id="rk89OR3VtX5FbfcCzR7j-280" value="" style="endArrow=none;html=1;rounded=0;exitX=0.5;exitY=1;exitDx=0;exitDy=0;entryX=1;entryY=0.5;entryDx=0;entryDy=0;" edge="1" parent="1" source="rk89OR3VtX5FbfcCzR7j-277" target="rk89OR3VtX5FbfcCzR7j-273">
          <mxGeometry relative="1" as="geometry">
            <mxPoint x="266.89" y="263.5" as="sourcePoint" />
            <mxPoint x="366.89" y="303.5" as="targetPoint" />
          </mxGeometry>
        </mxCell>
        <mxCell id="rk89OR3VtX5FbfcCzR7j-281" value="N" style="resizable=0;html=1;whiteSpace=wrap;align=right;verticalAlign=bottom;" connectable="0" vertex="1" parent="rk89OR3VtX5FbfcCzR7j-280">
          <mxGeometry x="1" relative="1" as="geometry">
            <mxPoint x="1" y="-1" as="offset" />
          </mxGeometry>
        </mxCell>
        <mxCell id="rk89OR3VtX5FbfcCzR7j-282" value="" style="endArrow=none;html=1;rounded=0;exitX=0.5;exitY=1;exitDx=0;exitDy=0;entryX=0;entryY=0.5;entryDx=0;entryDy=0;" edge="1" parent="1" source="rk89OR3VtX5FbfcCzR7j-277" target="rk89OR3VtX5FbfcCzR7j-276">
          <mxGeometry relative="1" as="geometry">
            <mxPoint x="766.89" y="138.5" as="sourcePoint" />
            <mxPoint x="646.89" y="278.5" as="targetPoint" />
          </mxGeometry>
        </mxCell>
        <mxCell id="rk89OR3VtX5FbfcCzR7j-283" value="N" style="resizable=0;html=1;whiteSpace=wrap;align=right;verticalAlign=bottom;" connectable="0" vertex="1" parent="rk89OR3VtX5FbfcCzR7j-282">
          <mxGeometry x="1" relative="1" as="geometry">
            <mxPoint x="3" y="-2" as="offset" />
          </mxGeometry>
        </mxCell>
        <mxCell id="rk89OR3VtX5FbfcCzR7j-284" value="" style="endArrow=none;html=1;rounded=0;exitX=0.5;exitY=0;exitDx=0;exitDy=0;entryX=0.5;entryY=0;entryDx=0;entryDy=0;" edge="1" parent="1" target="rk89OR3VtX5FbfcCzR7j-138">
          <mxGeometry relative="1" as="geometry">
            <mxPoint x="-21" y="413.0000000000002" as="sourcePoint" />
            <mxPoint x="79" y="393" as="targetPoint" />
          </mxGeometry>
        </mxCell>
        <mxCell id="rk89OR3VtX5FbfcCzR7j-138" value="bid_limit" style="ellipse;whiteSpace=wrap;html=1;align=center;" vertex="1" parent="1">
          <mxGeometry x="-51" y="408" width="100" height="40" as="geometry" />
        </mxCell>
        <mxCell id="rk89OR3VtX5FbfcCzR7j-287" value="" style="endArrow=none;html=1;rounded=0;entryX=0.5;entryY=0;entryDx=0;entryDy=0;exitX=0.5;exitY=0;exitDx=0;exitDy=0;" edge="1" parent="1" source="rk89OR3VtX5FbfcCzR7j-288" target="rk89OR3VtX5FbfcCzR7j-277">
          <mxGeometry relative="1" as="geometry">
            <mxPoint x="526.89" y="398.5" as="sourcePoint" />
            <mxPoint x="246.89" y="253.5" as="targetPoint" />
          </mxGeometry>
        </mxCell>
        <mxCell id="rk89OR3VtX5FbfcCzR7j-288" value="id" style="ellipse;whiteSpace=wrap;html=1;align=center;fontStyle=4" vertex="1" parent="1">
          <mxGeometry x="536.89" y="318.5" width="100" height="40" as="geometry" />
        </mxCell>
        <mxCell id="rk89OR3VtX5FbfcCzR7j-299" value="" style="endArrow=none;html=1;rounded=0;exitX=0.5;exitY=1;exitDx=0;exitDy=0;entryX=0.5;entryY=1;entryDx=0;entryDy=0;" edge="1" parent="1" source="rk89OR3VtX5FbfcCzR7j-122" target="rk89OR3VtX5FbfcCzR7j-302">
          <mxGeometry relative="1" as="geometry">
            <mxPoint x="280" y="270" as="sourcePoint" />
            <mxPoint x="172.95081967213127" y="150" as="targetPoint" />
          </mxGeometry>
        </mxCell>
        <mxCell id="rk89OR3VtX5FbfcCzR7j-300" value="&lt;div&gt;&lt;br&gt;&lt;/div&gt;&lt;div&gt;N&lt;br&gt;&lt;/div&gt;" style="resizable=0;html=1;whiteSpace=wrap;align=right;verticalAlign=bottom;" connectable="0" vertex="1" parent="rk89OR3VtX5FbfcCzR7j-299">
          <mxGeometry x="1" relative="1" as="geometry">
            <mxPoint x="12" y="17" as="offset" />
          </mxGeometry>
        </mxCell>
        <mxCell id="rk89OR3VtX5FbfcCzR7j-297" value="" style="endArrow=none;html=1;rounded=0;exitX=0.5;exitY=1;exitDx=0;exitDy=0;entryX=0.5;entryY=0;entryDx=0;entryDy=0;" edge="1" parent="1" source="rk89OR3VtX5FbfcCzR7j-87" target="rk89OR3VtX5FbfcCzR7j-302">
          <mxGeometry relative="1" as="geometry">
            <mxPoint x="280" y="270" as="sourcePoint" />
            <mxPoint x="172.95081967213127" y="150" as="targetPoint" />
          </mxGeometry>
        </mxCell>
        <mxCell id="rk89OR3VtX5FbfcCzR7j-298" value="&lt;div&gt;&lt;br&gt;&lt;/div&gt;&lt;div&gt;N&lt;br&gt;&lt;/div&gt;" style="resizable=0;html=1;whiteSpace=wrap;align=right;verticalAlign=bottom;" connectable="0" vertex="1" parent="rk89OR3VtX5FbfcCzR7j-297">
          <mxGeometry x="1" relative="1" as="geometry">
            <mxPoint x="-2" y="-4" as="offset" />
          </mxGeometry>
        </mxCell>
        <mxCell id="rk89OR3VtX5FbfcCzR7j-294" value="" style="html=1;shape=mxgraph.er.anchor;whiteSpace=wrap;dashed=1;strokeColor=default;align=center;verticalAlign=middle;fontFamily=Helvetica;fontSize=12;fontColor=default;fillColor=default;" vertex="1" parent="1">
          <mxGeometry x="-350" y="-100" width="359.99999999999994" height="629.9999999999998" as="geometry" />
        </mxCell>
        <mxCell id="rk89OR3VtX5FbfcCzR7j-302" value="Item" style="whiteSpace=wrap;html=1;align=center;" vertex="1" parent="1">
          <mxGeometry x="30" y="55" width="100" height="40" as="geometry" />
        </mxCell>
        <mxCell id="rk89OR3VtX5FbfcCzR7j-306" value="" style="endArrow=none;html=1;rounded=0;exitX=0.5;exitY=1;exitDx=0;exitDy=0;entryX=0.5;entryY=0;entryDx=0;entryDy=0;" edge="1" target="rk89OR3VtX5FbfcCzR7j-308" parent="1" source="rk89OR3VtX5FbfcCzR7j-1">
          <mxGeometry relative="1" as="geometry">
            <mxPoint x="1043.1100000000001" y="166.5" as="sourcePoint" />
            <mxPoint x="853.11" y="431.5" as="targetPoint" />
          </mxGeometry>
        </mxCell>
        <mxCell id="rk89OR3VtX5FbfcCzR7j-307" value="N" style="resizable=0;html=1;whiteSpace=wrap;align=right;verticalAlign=bottom;" connectable="0" vertex="1" parent="rk89OR3VtX5FbfcCzR7j-306">
          <mxGeometry x="1" relative="1" as="geometry">
            <mxPoint x="3" y="-2" as="offset" />
          </mxGeometry>
        </mxCell>
        <mxCell id="rk89OR3VtX5FbfcCzR7j-308" value="asks query" style="shape=rhombus;perimeter=rhombusPerimeter;whiteSpace=wrap;html=1;align=center;direction=east;" vertex="1" parent="1">
          <mxGeometry x="780" y="203.5" width="120" height="60" as="geometry" />
        </mxCell>
        <mxCell id="rk89OR3VtX5FbfcCzR7j-309" value="" style="endArrow=none;html=1;rounded=0;exitX=0.5;exitY=1;exitDx=0;exitDy=0;entryX=0.5;entryY=0;entryDx=0;entryDy=0;" edge="1" target="rk89OR3VtX5FbfcCzR7j-311" parent="1" source="rk89OR3VtX5FbfcCzR7j-1">
          <mxGeometry relative="1" as="geometry">
            <mxPoint x="1170" y="315.0000000000002" as="sourcePoint" />
            <mxPoint x="1013.11" y="619.5" as="targetPoint" />
          </mxGeometry>
        </mxCell>
        <mxCell id="rk89OR3VtX5FbfcCzR7j-310" value="N" style="resizable=0;html=1;whiteSpace=wrap;align=right;verticalAlign=bottom;" connectable="0" vertex="1" parent="rk89OR3VtX5FbfcCzR7j-309">
          <mxGeometry x="1" relative="1" as="geometry">
            <mxPoint x="7" y="-6" as="offset" />
          </mxGeometry>
        </mxCell>
        <mxCell id="rk89OR3VtX5FbfcCzR7j-311" value="responds" style="shape=rhombus;perimeter=rhombusPerimeter;whiteSpace=wrap;html=1;align=center;direction=east;" vertex="1" parent="1">
          <mxGeometry x="910" y="213.5" width="120" height="60" as="geometry" />
        </mxCell>
        <mxCell id="rk89OR3VtX5FbfcCzR7j-312" value="" style="endArrow=none;html=1;rounded=0;entryX=0.5;entryY=1;entryDx=0;entryDy=0;exitX=0.5;exitY=0;exitDx=0;exitDy=0;" edge="1" parent="1" source="rk89OR3VtX5FbfcCzR7j-316" target="rk89OR3VtX5FbfcCzR7j-308">
          <mxGeometry relative="1" as="geometry">
            <mxPoint x="870" y="370" as="sourcePoint" />
            <mxPoint x="790" y="259" as="targetPoint" />
          </mxGeometry>
        </mxCell>
        <mxCell id="rk89OR3VtX5FbfcCzR7j-313" value="N" style="resizable=0;html=1;whiteSpace=wrap;align=right;verticalAlign=bottom;" connectable="0" vertex="1" parent="rk89OR3VtX5FbfcCzR7j-312">
          <mxGeometry x="1" relative="1" as="geometry">
            <mxPoint x="18" y="14" as="offset" />
          </mxGeometry>
        </mxCell>
        <mxCell id="rk89OR3VtX5FbfcCzR7j-314" value="" style="endArrow=none;html=1;rounded=0;entryX=0.5;entryY=1;entryDx=0;entryDy=0;exitX=0.5;exitY=0;exitDx=0;exitDy=0;" edge="1" parent="1" source="rk89OR3VtX5FbfcCzR7j-316" target="rk89OR3VtX5FbfcCzR7j-311">
          <mxGeometry relative="1" as="geometry">
            <mxPoint x="890" y="340" as="sourcePoint" />
            <mxPoint x="810" y="289" as="targetPoint" />
          </mxGeometry>
        </mxCell>
        <mxCell id="rk89OR3VtX5FbfcCzR7j-315" value="N" style="resizable=0;html=1;whiteSpace=wrap;align=right;verticalAlign=bottom;" connectable="0" vertex="1" parent="rk89OR3VtX5FbfcCzR7j-314">
          <mxGeometry x="1" relative="1" as="geometry">
            <mxPoint x="8" y="24" as="offset" />
          </mxGeometry>
        </mxCell>
        <mxCell id="rk89OR3VtX5FbfcCzR7j-316" value="Question Portal" style="whiteSpace=wrap;html=1;align=center;" vertex="1" parent="1">
          <mxGeometry x="840" y="408.5" width="100" height="40" as="geometry" />
        </mxCell>
        <mxCell id="rk89OR3VtX5FbfcCzR7j-318" value="Response" style="whiteSpace=wrap;html=1;align=center;" vertex="1" parent="1">
          <mxGeometry x="1060" y="570" width="100" height="40" as="geometry" />
        </mxCell>
        <mxCell id="rk89OR3VtX5FbfcCzR7j-319" value="Questions" style="whiteSpace=wrap;html=1;align=center;" vertex="1" parent="1">
          <mxGeometry x="710" y="570" width="100" height="40" as="geometry" />
        </mxCell>
        <mxCell id="rk89OR3VtX5FbfcCzR7j-320" value="asks query" style="shape=rhombus;perimeter=rhombusPerimeter;whiteSpace=wrap;html=1;align=center;direction=east;" vertex="1" parent="1">
          <mxGeometry x="730" y="478" width="120" height="60" as="geometry" />
        </mxCell>
        <mxCell id="rk89OR3VtX5FbfcCzR7j-321" value="" style="endArrow=none;html=1;rounded=0;entryX=1;entryY=0.5;entryDx=0;entryDy=0;exitX=0.5;exitY=1;exitDx=0;exitDy=0;" edge="1" parent="1" source="rk89OR3VtX5FbfcCzR7j-316" target="rk89OR3VtX5FbfcCzR7j-320">
          <mxGeometry relative="1" as="geometry">
            <mxPoint x="710" y="320" as="sourcePoint" />
            <mxPoint x="810" y="289" as="targetPoint" />
          </mxGeometry>
        </mxCell>
        <mxCell id="rk89OR3VtX5FbfcCzR7j-322" value="N" style="resizable=0;html=1;whiteSpace=wrap;align=right;verticalAlign=bottom;" connectable="0" vertex="1" parent="rk89OR3VtX5FbfcCzR7j-321">
          <mxGeometry x="1" relative="1" as="geometry">
            <mxPoint x="18" y="14" as="offset" />
          </mxGeometry>
        </mxCell>
        <mxCell id="rk89OR3VtX5FbfcCzR7j-323" value="" style="endArrow=none;html=1;rounded=0;entryX=0;entryY=0.5;entryDx=0;entryDy=0;exitX=0.5;exitY=0;exitDx=0;exitDy=0;" edge="1" parent="1" source="rk89OR3VtX5FbfcCzR7j-319" target="rk89OR3VtX5FbfcCzR7j-320">
          <mxGeometry relative="1" as="geometry">
            <mxPoint x="890" y="439" as="sourcePoint" />
            <mxPoint x="830" y="490" as="targetPoint" />
          </mxGeometry>
        </mxCell>
        <mxCell id="rk89OR3VtX5FbfcCzR7j-324" value="N" style="resizable=0;html=1;whiteSpace=wrap;align=right;verticalAlign=bottom;" connectable="0" vertex="1" parent="rk89OR3VtX5FbfcCzR7j-323">
          <mxGeometry x="1" relative="1" as="geometry">
            <mxPoint x="-1" y="9" as="offset" />
          </mxGeometry>
        </mxCell>
        <mxCell id="rk89OR3VtX5FbfcCzR7j-325" value="responded by" style="shape=rhombus;perimeter=rhombusPerimeter;whiteSpace=wrap;html=1;align=center;direction=west;" vertex="1" parent="1">
          <mxGeometry x="970" y="478" width="120" height="60" as="geometry" />
        </mxCell>
        <mxCell id="rk89OR3VtX5FbfcCzR7j-326" value="" style="endArrow=none;html=1;rounded=0;entryX=1;entryY=0.5;entryDx=0;entryDy=0;exitX=0.5;exitY=1;exitDx=0;exitDy=0;" edge="1" target="rk89OR3VtX5FbfcCzR7j-325" parent="1" source="rk89OR3VtX5FbfcCzR7j-316">
          <mxGeometry relative="1" as="geometry">
            <mxPoint x="1090" y="425" as="sourcePoint" />
            <mxPoint x="1010" y="265" as="targetPoint" />
          </mxGeometry>
        </mxCell>
        <mxCell id="rk89OR3VtX5FbfcCzR7j-327" value="N" style="resizable=0;html=1;whiteSpace=wrap;align=right;verticalAlign=bottom;" connectable="0" vertex="1" parent="rk89OR3VtX5FbfcCzR7j-326">
          <mxGeometry x="1" relative="1" as="geometry">
            <mxPoint x="8" y="-3" as="offset" />
          </mxGeometry>
        </mxCell>
        <mxCell id="rk89OR3VtX5FbfcCzR7j-328" value="" style="endArrow=none;html=1;rounded=0;entryX=0;entryY=0.5;entryDx=0;entryDy=0;exitX=0.5;exitY=0;exitDx=0;exitDy=0;" edge="1" target="rk89OR3VtX5FbfcCzR7j-325" parent="1" source="rk89OR3VtX5FbfcCzR7j-318">
          <mxGeometry relative="1" as="geometry">
            <mxPoint x="967" y="546" as="sourcePoint" />
            <mxPoint x="1070" y="466" as="targetPoint" />
          </mxGeometry>
        </mxCell>
        <mxCell id="rk89OR3VtX5FbfcCzR7j-329" value="N" style="resizable=0;html=1;whiteSpace=wrap;align=right;verticalAlign=bottom;" connectable="0" vertex="1" parent="rk89OR3VtX5FbfcCzR7j-328">
          <mxGeometry x="1" relative="1" as="geometry">
            <mxPoint x="12" y="7" as="offset" />
          </mxGeometry>
        </mxCell>
        <mxCell id="rk89OR3VtX5FbfcCzR7j-330" value="q_id" style="ellipse;whiteSpace=wrap;html=1;align=center;fontStyle=4" vertex="1" parent="1">
          <mxGeometry x="650" y="640" width="100" height="40" as="geometry" />
        </mxCell>
        <mxCell id="rk89OR3VtX5FbfcCzR7j-331" value="" style="endArrow=none;html=1;rounded=0;entryX=0.5;entryY=1;entryDx=0;entryDy=0;exitX=0.5;exitY=0;exitDx=0;exitDy=0;" edge="1" source="rk89OR3VtX5FbfcCzR7j-330" parent="1" target="rk89OR3VtX5FbfcCzR7j-319">
          <mxGeometry relative="1" as="geometry">
            <mxPoint x="680" y="714.5" as="sourcePoint" />
            <mxPoint x="740.11" y="620" as="targetPoint" />
          </mxGeometry>
        </mxCell>
        <mxCell id="rk89OR3VtX5FbfcCzR7j-332" value="" style="endArrow=none;html=1;rounded=0;entryX=0.5;entryY=1;entryDx=0;entryDy=0;exitX=0.5;exitY=0;exitDx=0;exitDy=0;" edge="1" source="rk89OR3VtX5FbfcCzR7j-333" parent="1" target="rk89OR3VtX5FbfcCzR7j-319">
          <mxGeometry relative="1" as="geometry">
            <mxPoint x="790" y="724.5" as="sourcePoint" />
            <mxPoint x="837" y="620" as="targetPoint" />
          </mxGeometry>
        </mxCell>
        <mxCell id="rk89OR3VtX5FbfcCzR7j-333" value="question" style="ellipse;whiteSpace=wrap;html=1;align=center;fontStyle=0" vertex="1" parent="1">
          <mxGeometry x="780" y="640" width="100" height="40" as="geometry" />
        </mxCell>
        <mxCell id="rk89OR3VtX5FbfcCzR7j-335" value="" style="endArrow=none;html=1;rounded=0;entryX=0.5;entryY=1;entryDx=0;entryDy=0;exitX=0.5;exitY=0;exitDx=0;exitDy=0;" edge="1" source="rk89OR3VtX5FbfcCzR7j-336" parent="1" target="rk89OR3VtX5FbfcCzR7j-319">
          <mxGeometry relative="1" as="geometry">
            <mxPoint x="736.89" y="774.5" as="sourcePoint" />
            <mxPoint x="706.89" y="660" as="targetPoint" />
          </mxGeometry>
        </mxCell>
        <mxCell id="rk89OR3VtX5FbfcCzR7j-336" value="is_open" style="ellipse;whiteSpace=wrap;html=1;align=center;fontStyle=0" vertex="1" parent="1">
          <mxGeometry x="710" y="680" width="100" height="40" as="geometry" />
        </mxCell>
        <mxCell id="rk89OR3VtX5FbfcCzR7j-337" value="reply_no" style="ellipse;whiteSpace=wrap;html=1;align=center;fontStyle=0" vertex="1" parent="1">
          <mxGeometry x="970" y="630" width="100" height="40" as="geometry" />
        </mxCell>
        <mxCell id="rk89OR3VtX5FbfcCzR7j-338" value="" style="endArrow=none;html=1;rounded=0;entryX=0.5;entryY=1;entryDx=0;entryDy=0;exitX=0.5;exitY=0;exitDx=0;exitDy=0;" edge="1" source="rk89OR3VtX5FbfcCzR7j-337" parent="1" target="rk89OR3VtX5FbfcCzR7j-318">
          <mxGeometry relative="1" as="geometry">
            <mxPoint x="1010" y="724.5" as="sourcePoint" />
            <mxPoint x="1070" y="595" as="targetPoint" />
          </mxGeometry>
        </mxCell>
        <mxCell id="rk89OR3VtX5FbfcCzR7j-339" value="r_id" style="ellipse;whiteSpace=wrap;html=1;align=center;fontStyle=4" vertex="1" parent="1">
          <mxGeometry x="1000" y="680" width="100" height="40" as="geometry" />
        </mxCell>
        <mxCell id="rk89OR3VtX5FbfcCzR7j-340" value="" style="endArrow=none;html=1;rounded=0;entryX=0.5;entryY=1;entryDx=0;entryDy=0;exitX=0.5;exitY=0;exitDx=0;exitDy=0;" edge="1" source="rk89OR3VtX5FbfcCzR7j-339" parent="1" target="rk89OR3VtX5FbfcCzR7j-318">
          <mxGeometry relative="1" as="geometry">
            <mxPoint x="1040" y="774.5" as="sourcePoint" />
            <mxPoint x="1140" y="660" as="targetPoint" />
          </mxGeometry>
        </mxCell>
        <mxCell id="rk89OR3VtX5FbfcCzR7j-341" value="response" style="ellipse;whiteSpace=wrap;html=1;align=center;fontStyle=4" vertex="1" parent="1">
          <mxGeometry x="1070" y="715" width="100" height="40" as="geometry" />
        </mxCell>
        <mxCell id="rk89OR3VtX5FbfcCzR7j-342" value="" style="endArrow=none;html=1;rounded=0;entryX=0.5;entryY=1;entryDx=0;entryDy=0;exitX=0.5;exitY=0;exitDx=0;exitDy=0;" edge="1" source="rk89OR3VtX5FbfcCzR7j-341" parent="1" target="rk89OR3VtX5FbfcCzR7j-318">
          <mxGeometry relative="1" as="geometry">
            <mxPoint x="1130" y="809.5" as="sourcePoint" />
            <mxPoint x="1200" y="645" as="targetPoint" />
          </mxGeometry>
        </mxCell>
        <mxCell id="rk89OR3VtX5FbfcCzR7j-343" value="role" style="ellipse;whiteSpace=wrap;html=1;align=center;" vertex="1" parent="1">
          <mxGeometry x="930" y="-2.5" width="100" height="40" as="geometry" />
        </mxCell>
        <mxCell id="rk89OR3VtX5FbfcCzR7j-344" value="" style="endArrow=none;html=1;rounded=0;exitX=0.5;exitY=1;exitDx=0;exitDy=0;entryX=0.5;entryY=0;entryDx=0;entryDy=0;" edge="1" source="rk89OR3VtX5FbfcCzR7j-343" parent="1" target="rk89OR3VtX5FbfcCzR7j-1">
          <mxGeometry relative="1" as="geometry">
            <mxPoint x="1110" y="9" as="sourcePoint" />
            <mxPoint x="869.9999999999995" y="62.5" as="targetPoint" />
          </mxGeometry>
        </mxCell>
        <mxCell id="rk89OR3VtX5FbfcCzR7j-345" value="Inherits Attributes" style="shape=rhombus;perimeter=rhombusPerimeter;whiteSpace=wrap;html=1;align=center;" vertex="1" parent="1">
          <mxGeometry x="-1010" y="-90" width="120" height="60" as="geometry" />
        </mxCell>
        <mxCell id="rk89OR3VtX5FbfcCzR7j-346" value="" style="endArrow=none;html=1;rounded=0;exitX=0.5;exitY=0;exitDx=0;exitDy=0;entryX=0.5;entryY=1;entryDx=0;entryDy=0;" edge="1" target="rk89OR3VtX5FbfcCzR7j-345" parent="1" source="rk89OR3VtX5FbfcCzR7j-192">
          <mxGeometry relative="1" as="geometry">
            <mxPoint x="-1160" y="255" as="sourcePoint" />
            <mxPoint x="-1019.9999999999998" y="347" as="targetPoint" />
          </mxGeometry>
        </mxCell>
        <mxCell id="rk89OR3VtX5FbfcCzR7j-347" value="N" style="resizable=0;html=1;whiteSpace=wrap;align=right;verticalAlign=bottom;direction=west;" connectable="0" vertex="1" parent="rk89OR3VtX5FbfcCzR7j-346">
          <mxGeometry x="1" relative="1" as="geometry">
            <mxPoint y="20" as="offset" />
          </mxGeometry>
        </mxCell>
        <mxCell id="rk89OR3VtX5FbfcCzR7j-348" value="" style="endArrow=none;html=1;rounded=0;entryX=0.5;entryY=0;entryDx=0;entryDy=0;exitX=0.5;exitY=1;exitDx=0;exitDy=0;" edge="1" target="rk89OR3VtX5FbfcCzR7j-345" parent="1" source="rk89OR3VtX5FbfcCzR7j-243">
          <mxGeometry relative="1" as="geometry">
            <mxPoint x="-1040" y="90" as="sourcePoint" />
            <mxPoint x="-550" y="677" as="targetPoint" />
          </mxGeometry>
        </mxCell>
        <mxCell id="rk89OR3VtX5FbfcCzR7j-349" value="N" style="resizable=0;html=1;whiteSpace=wrap;align=right;verticalAlign=bottom;" connectable="0" vertex="1" parent="rk89OR3VtX5FbfcCzR7j-348">
          <mxGeometry x="1" relative="1" as="geometry">
            <mxPoint x="11" y="1" as="offset" />
          </mxGeometry>
        </mxCell>
        <mxCell id="rk89OR3VtX5FbfcCzR7j-352" value="Contains Sub Cat." style="shape=rhombus;perimeter=rhombusPerimeter;whiteSpace=wrap;html=1;align=center;direction=west;" vertex="1" parent="1">
          <mxGeometry x="-720" y="-145" width="150" height="75" as="geometry" />
        </mxCell>
        <mxCell id="rk89OR3VtX5FbfcCzR7j-353" value="" style="endArrow=none;html=1;rounded=0;entryX=0.5;entryY=0;entryDx=0;entryDy=0;exitX=1;exitY=0.5;exitDx=0;exitDy=0;" edge="1" parent="1" source="rk89OR3VtX5FbfcCzR7j-159" target="rk89OR3VtX5FbfcCzR7j-352">
          <mxGeometry relative="1" as="geometry">
            <mxPoint x="-590" y="53" as="sourcePoint" />
            <mxPoint x="-450" y="-75" as="targetPoint" />
          </mxGeometry>
        </mxCell>
        <mxCell id="rk89OR3VtX5FbfcCzR7j-354" value="N" style="resizable=0;html=1;whiteSpace=wrap;align=right;verticalAlign=bottom;" connectable="0" vertex="1" parent="rk89OR3VtX5FbfcCzR7j-353">
          <mxGeometry x="1" relative="1" as="geometry">
            <mxPoint x="-10" y="15" as="offset" />
          </mxGeometry>
        </mxCell>
        <mxCell id="rk89OR3VtX5FbfcCzR7j-355" value="" style="endArrow=none;html=1;rounded=0;exitX=0.5;exitY=1;exitDx=0;exitDy=0;entryX=0.5;entryY=1;entryDx=0;entryDy=0;" edge="1" parent="1" source="rk89OR3VtX5FbfcCzR7j-206" target="rk89OR3VtX5FbfcCzR7j-352">
          <mxGeometry relative="1" as="geometry">
            <mxPoint x="-610" y="-180" as="sourcePoint" />
            <mxPoint x="-490" y="-140" as="targetPoint" />
          </mxGeometry>
        </mxCell>
        <mxCell id="rk89OR3VtX5FbfcCzR7j-356" value="N" style="resizable=0;html=1;whiteSpace=wrap;align=right;verticalAlign=bottom;direction=west;" connectable="0" vertex="1" parent="rk89OR3VtX5FbfcCzR7j-355">
          <mxGeometry x="1" relative="1" as="geometry" />
        </mxCell>
        <mxCell id="rk89OR3VtX5FbfcCzR7j-357" value="Sub Category" style="whiteSpace=wrap;html=1;align=center;direction=east;" vertex="1" parent="1">
          <mxGeometry x="-802.5" y="-510" width="100" height="40" as="geometry" />
        </mxCell>
        <mxCell id="rk89OR3VtX5FbfcCzR7j-358" value="" style="endArrow=none;html=1;rounded=0;exitX=0.5;exitY=1;exitDx=0;exitDy=0;entryX=0.5;entryY=0;entryDx=0;entryDy=0;" edge="1" source="rk89OR3VtX5FbfcCzR7j-360" target="rk89OR3VtX5FbfcCzR7j-357" parent="1">
          <mxGeometry relative="1" as="geometry">
            <mxPoint x="-1482.5" y="-280" as="sourcePoint" />
            <mxPoint x="-1272.5" y="-260" as="targetPoint" />
          </mxGeometry>
        </mxCell>
        <mxCell id="rk89OR3VtX5FbfcCzR7j-359" value="id" style="ellipse;whiteSpace=wrap;html=1;align=center;fontStyle=4;direction=east;" vertex="1" parent="1">
          <mxGeometry x="-747.5" y="-590" width="100" height="40" as="geometry" />
        </mxCell>
        <mxCell id="rk89OR3VtX5FbfcCzR7j-360" value="name" style="ellipse;whiteSpace=wrap;html=1;align=center;fontStyle=0;" vertex="1" parent="1">
          <mxGeometry x="-862.5" y="-590" width="100" height="40" as="geometry" />
        </mxCell>
        <mxCell id="rk89OR3VtX5FbfcCzR7j-361" value="Has Sub Categories" style="shape=rhombus;perimeter=rhombusPerimeter;whiteSpace=wrap;html=1;align=center;direction=west;" vertex="1" parent="1">
          <mxGeometry x="-750" y="-410" width="130" height="70" as="geometry" />
        </mxCell>
        <mxCell id="rk89OR3VtX5FbfcCzR7j-362" value="" style="endArrow=none;html=1;rounded=0;exitX=0.5;exitY=1;exitDx=0;exitDy=0;entryX=0.5;entryY=1;entryDx=0;entryDy=0;" edge="1" source="rk89OR3VtX5FbfcCzR7j-357" target="rk89OR3VtX5FbfcCzR7j-361" parent="1">
          <mxGeometry relative="1" as="geometry">
            <mxPoint x="-1260" y="-345" as="sourcePoint" />
            <mxPoint x="-1269.9999999999998" y="-295" as="targetPoint" />
          </mxGeometry>
        </mxCell>
        <mxCell id="rk89OR3VtX5FbfcCzR7j-363" value="N" style="resizable=0;html=1;whiteSpace=wrap;align=right;verticalAlign=bottom;direction=west;" connectable="0" vertex="1" parent="rk89OR3VtX5FbfcCzR7j-362">
          <mxGeometry x="1" relative="1" as="geometry">
            <mxPoint x="15" y="-5" as="offset" />
          </mxGeometry>
        </mxCell>
        <mxCell id="rk89OR3VtX5FbfcCzR7j-364" value="" style="endArrow=none;html=1;rounded=0;exitX=0.5;exitY=1;exitDx=0;exitDy=0;entryX=0.5;entryY=0;entryDx=0;entryDy=0;" edge="1" source="rk89OR3VtX5FbfcCzR7j-359" target="rk89OR3VtX5FbfcCzR7j-357" parent="1">
          <mxGeometry relative="1" as="geometry">
            <mxPoint x="-1152.5" y="-450" as="sourcePoint" />
            <mxPoint x="-1132.5" y="-310" as="targetPoint" />
          </mxGeometry>
        </mxCell>
        <mxCell id="rk89OR3VtX5FbfcCzR7j-365" value="" style="endArrow=none;html=1;rounded=0;entryX=0.5;entryY=0;entryDx=0;entryDy=0;exitX=0.5;exitY=0;exitDx=0;exitDy=0;" edge="1" target="rk89OR3VtX5FbfcCzR7j-361" parent="1" source="rk89OR3VtX5FbfcCzR7j-206">
          <mxGeometry relative="1" as="geometry">
            <mxPoint x="-820" y="-260" as="sourcePoint" />
            <mxPoint x="-810" y="-5" as="targetPoint" />
          </mxGeometry>
        </mxCell>
        <mxCell id="rk89OR3VtX5FbfcCzR7j-366" value="N" style="resizable=0;html=1;whiteSpace=wrap;align=right;verticalAlign=bottom;" connectable="0" vertex="1" parent="rk89OR3VtX5FbfcCzR7j-365">
          <mxGeometry x="1" relative="1" as="geometry">
            <mxPoint x="1" y="20" as="offset" />
          </mxGeometry>
        </mxCell>
      </root>
    </mxGraphModel>
  </diagram>
</mxfile>
